<?xml version="1.0" standalone="no"?>
<!DOCTYPE svg PUBLIC "-//W3C//DTD SVG 20010904//EN"
 "http://www.w3.org/TR/2001/REC-SVG-20010904/DTD/svg10.dtd">
<svg version="1.0" xmlns="http://www.w3.org/2000/svg"
 width="266.000000pt" height="266.000000pt" viewBox="0 0 266.000000 266.000000"
 preserveAspectRatio="xMidYMid meet">
<metadata>
Created by potrace 1.11, written by Peter Selinger 2001-2013
</metadata>
<g transform="translate(0.000000,266.000000) scale(0.100000,-0.100000)"
fill="#000000" stroke="none">
<path d="M1125 2466 c-84 -18 -136 -38 -131 -52 2 -6 -7 -23 -20 -38 -25 -26
-41 -35 -29 -16 23 37 -68 -26 -94 -65 -13 -20 -30 -34 -37 -31 -8 3 -11 0 -8
-8 3 -8 0 -17 -7 -22 -8 -5 -10 -3 -4 7 7 12 6 12 -9 0 -30 -25 -66 -108 -92
-214 -22 -88 -25 -116 -20 -208 6 -105 22 -167 52 -196 8 -8 14 -23 14 -34 0
-10 5 -19 10 -19 6 0 8 10 4 24 -5 21 1 53 21 111 5 14 -1 11 -19 -10 -31 -36
-32 -26 -5 51 16 47 19 74 15 129 -3 39 -6 86 -5 105 0 62 51 189 97 241 16
19 32 43 34 54 2 11 10 19 16 18 7 -2 12 2 12 7 0 6 9 10 20 10 11 0 45 11 76
25 39 17 74 25 115 25 33 0 59 4 59 9 0 9 83 23 133 22 15 0 27 4 27 10 0 6 7
3 16 -5 8 -9 22 -16 30 -16 18 0 125 -52 164 -80 33 -24 127 -140 152 -190 12
-22 18 -57 18 -100 0 -74 36 -202 70 -250 30 -42 22 -45 -19 -9 -37 32 -46 35
-58 17 -4 -7 -14 -13 -22 -13 -8 0 -16 -5 -18 -12 -4 -12 21 -12 33 0 12 12
51 8 64 -7 6 -8 15 -36 20 -63 4 -26 8 -43 9 -37 0 6 14 27 31 45 37 42 43 71
37 185 -9 173 -52 283 -149 376 -15 15 -28 30 -28 33 0 8 -27 35 -35 35 -3 0
-3 -4 0 -10 3 -5 3 -10 -2 -10 -14 1 -48 30 -49 43 -1 7 -2 17 -3 23 -1 12
-44 34 -67 34 -12 0 -13 -4 -3 -22 11 -20 10 -21 -3 -10 -9 7 -22 10 -30 7 -8
-3 -25 6 -38 20 -18 19 -20 25 -8 25 9 0 21 -7 28 -15 14 -17 30 -20 30 -6 0
5 -17 16 -37 25 -21 9 -46 21 -56 27 -56 30 -214 44 -302 25z m470 -126 c3 -5
1 -10 -4 -10 -6 0 -11 5 -11 10 0 6 2 10 4 10 3 0 8 -4 11 -10z m149 -201 c-4
-6 -11 -6 -20 2 -21 17 -17 31 6 19 11 -6 18 -15 14 -21z"/>
<path d="M1359 1966 c-2 -3 -17 -7 -33 -10 -16 -3 -36 -12 -46 -21 -17 -16
-46 -16 -173 0 -44 6 -64 3 -102 -14 -26 -12 -54 -21 -62 -21 -8 0 -11 -5 -8
-11 4 -6 19 -7 37 -4 38 9 168 -4 168 -17 0 -5 -9 -6 -20 -3 -31 10 -171 7
-208 -4 -38 -11 -70 -43 -78 -78 -4 -13 -12 -23 -20 -23 -8 0 -11 -6 -8 -15 4
-8 12 -15 19 -15 8 0 16 -9 20 -19 7 -24 26 -31 100 -38 76 -7 84 -13 17 -13
-35 0 -52 -4 -52 -12 0 -21 113 -22 152 -2 l33 18 -25 7 c-25 7 -25 7 -2 8 30
1 63 19 80 43 7 10 18 15 24 12 15 -10 28 17 21 44 -3 12 -1 22 3 21 21 -4 28
2 14 11 -13 9 -13 11 0 20 12 8 12 10 -5 10 -17 0 -17 2 -5 10 8 5 31 9 50 9
l35 -1 -30 -8 c-28 -7 -28 -8 -5 -9 20 -1 30 -12 50 -52 25 -51 61 -94 47 -56
-6 17 -4 16 19 -2 15 -12 31 -21 36 -21 6 0 21 -9 35 -20 14 -11 41 -20 59
-20 40 0 87 17 80 29 -5 8 15 18 58 27 25 6 46 23 46 38 0 6 -10 29 -21 51
-12 22 -21 41 -20 43 1 1 -2 9 -6 17 -11 19 -93 34 -162 29 -53 -3 -54 -3 -16
6 22 5 58 9 80 9 53 1 35 15 -46 35 -63 15 -121 21 -130 12z m38 -72 c-3 -3
-12 -4 -19 -1 -8 3 -5 6 6 6 11 1 17 -2 13 -5z m169 -51 c-2 -2 -15 2 -30 8
-19 9 -23 15 -14 20 12 7 53 -19 44 -28z m-591 -13 c3 -4 -12 -20 -32 -36 -22
-17 -34 -22 -31 -12 4 8 2 21 -2 28 -5 8 -7 17 -4 21 6 10 63 8 69 -1z m555
-6 c0 -2 -9 -4 -20 -4 -11 0 -20 4 -20 9 0 5 9 7 20 4 11 -3 20 -7 20 -9z
m-521 -36 c-55 -34 -93 -48 -73 -29 14 15 68 41 73 36 2 -3 2 -6 0 -7z m504
-95 c-7 -2 -21 -2 -30 0 -10 3 -4 5 12 5 17 0 24 -2 18 -5z"/>
<path d="M1686 1813 c-9 -9 -7 -33 3 -33 12 0 22 28 12 34 -5 3 -11 3 -15 -1z"/>
<path d="M1871 1654 c-22 -28 -28 -64 -11 -64 6 0 10 5 10 10 0 24 22 7 39
-30 22 -49 31 -42 31 22 0 85 -30 112 -69 62z"/>
<path d="M1380 1667 c0 -3 9 -24 19 -48 11 -24 18 -46 15 -51 -3 -4 -25 2 -50
12 -48 21 -100 26 -106 11 -1 -4 -28 -20 -58 -34 -51 -25 -56 -25 -67 -10 -7
9 -13 23 -13 30 0 19 -13 16 -46 -9 -88 -69 -129 -157 -105 -221 14 -37 25
-34 46 13 10 23 24 44 30 48 6 4 23 30 37 57 14 28 32 51 40 53 17 3 95 -64
85 -74 -4 -4 -2 -13 4 -20 6 -7 8 -17 5 -22 -6 -10 -117 -65 -121 -60 -1 2 -7
11 -12 22 -10 18 -11 18 -32 -3 -14 -14 -21 -33 -21 -61 0 -22 2 -40 5 -40 2
0 19 8 37 18 88 48 156 65 274 66 74 1 117 -3 122 -10 4 -6 22 -19 40 -28 19
-10 31 -20 29 -23 -3 -3 3 -14 13 -26 15 -15 17 -24 9 -40 -8 -13 -8 -22 0
-30 14 -14 14 -30 1 -22 -5 3 -10 -2 -10 -12 0 -15 -2 -16 -10 -3 -8 13 -10
12 -10 -3 0 -10 -4 -16 -9 -13 -5 3 -11 -8 -15 -25 -5 -28 -7 -29 -28 -17 -13
7 -27 11 -33 9 -5 -1 -32 -4 -60 -6 -74 -5 -111 -15 -134 -36 -11 -10 -29 -19
-39 -19 -11 0 -25 -7 -33 -16 -8 -9 -21 -13 -35 -10 -18 5 -22 2 -20 -19 0
-14 7 -27 14 -30 6 -2 12 -13 12 -23 0 -11 7 -25 15 -32 8 -7 12 -16 9 -22 -3
-5 0 -15 6 -23 10 -12 9 -15 -4 -15 -10 0 -14 -5 -10 -11 4 -8 -1 -9 -17 -4
-18 5 -21 4 -9 -4 8 -6 23 -8 33 -5 12 4 17 0 17 -15 0 -14 13 -27 38 -40 20
-11 51 -34 68 -53 33 -35 60 -114 41 -121 -6 -2 -7 -14 -3 -31 4 -17 12 -26
20 -23 8 3 18 1 23 -4 6 -6 24 -4 49 5 33 11 39 18 37 40 -1 15 2 24 7 21 4
-3 6 4 3 15 -3 11 -13 20 -22 21 -13 0 -13 2 -1 6 19 8 34 25 38 42 2 8 14 23
28 33 13 11 22 24 19 29 -4 5 12 27 34 50 23 22 41 46 41 54 0 7 6 18 13 24 8
6 19 30 26 53 7 24 26 62 42 85 15 24 31 58 34 76 6 29 4 35 -14 40 -12 3 -20
9 -19 14 7 23 -62 103 -89 103 -7 0 -13 10 -13 21 0 12 -7 27 -17 34 -11 8
-14 18 -9 31 7 18 8 18 23 -1 15 -20 15 -20 9 1 -5 16 0 26 18 38 16 10 24 24
23 38 -3 33 -44 96 -68 103 -11 4 -44 30 -73 58 -55 53 -116 102 -116 94z m60
-169 c11 -18 19 -42 18 -53 -3 -24 -42 -32 -64 -15 -16 14 -19 60 -4 60 6 0
10 9 10 20 0 30 18 24 40 -12z m20 -928 c0 -5 -4 -10 -10 -10 -5 0 -10 5 -10
10 0 6 5 10 10 10 6 0 10 -4 10 -10z"/>
<path d="M1810 1595 c0 -2 9 -22 21 -44 16 -31 18 -44 10 -60 -16 -29 -13 -41
9 -41 11 0 20 6 20 14 0 7 7 19 15 26 26 22 17 47 -30 79 -25 17 -45 28 -45
26z"/>
<path d="M680 1564 c0 -38 21 -104 31 -98 5 3 9 29 9 59 0 39 -4 54 -16 59
-23 9 -24 8 -24 -20z"/>
<path d="M750 1401 c0 -5 5 -13 10 -16 6 -3 10 -2 10 4 0 5 -4 13 -10 16 -5 3
-10 2 -10 -4z"/>
<path d="M1838 1343 c7 -3 16 -2 19 1 4 3 -2 6 -13 5 -11 0 -14 -3 -6 -6z"/>
<path d="M1276 1293 c-43 -7 -76 -32 -76 -59 0 -35 27 -44 109 -35 77 8 93 17
97 56 4 40 -35 52 -130 38z"/>
<path d="M1935 660 c32 -21 41 -20 32 5 -4 8 -18 15 -34 15 l-28 0 30 -20z"/>
<path d="M1885 479 c-83 -46 -167 -76 -273 -95 -100 -19 -222 -28 -222 -17 0
5 19 10 43 11 23 1 71 8 107 16 l65 16 -57 -5 c-32 -2 -58 0 -58 4 0 4 -7 8
-15 8 -8 0 -12 -4 -10 -8 7 -10 -31 -18 -46 -8 -7 4 -20 4 -29 -1 -9 -5 -22
-3 -32 4 -12 9 -32 11 -62 6 -25 -4 -43 -4 -41 0 3 4 -14 10 -38 13 -31 5 -45
2 -53 -9 -10 -12 -13 -12 -17 -2 -4 9 -6 8 -6 -3 -1 -12 11 -18 38 -23 22 -3
43 -11 46 -16 9 -14 -36 -12 -125 5 -41 8 -88 17 -105 20 -67 13 4 -13 80 -30
44 -9 90 -21 101 -25 12 -5 88 -7 170 -6 157 3 246 19 404 72 75 26 194 86
205 104 8 13 10 14 -70 -31z m-618 -115 c-3 -3 -12 -4 -19 -1 -8 3 -5 6 6 6
11 1 17 -2 13 -5z"/>
<path d="M887 429 c7 -7 15 -10 18 -7 3 3 -2 9 -12 12 -14 6 -15 5 -6 -5z"/>
<path d="M930 410 c8 -5 20 -10 25 -10 6 0 3 5 -5 10 -8 5 -19 10 -25 10 -5 0
-3 -5 5 -10z"/>
<path d="M1428 413 c7 -3 16 -2 19 1 4 3 -2 6 -13 5 -11 0 -14 -3 -6 -6z"/>
</g>
</svg>
